<svg width="12" height="12" viewBox="0 0 12 12" fill="none" xmlns="http://www.w3.org/2000/svg">
<path d="M1.5 4.5L10.5 4.5M4.5 1.5L4.5 10.5M1.5 7.5L10.5 7.5M1.5 4.7L1.5 7.3C1.5 8.4201 1.5 8.98016 1.71799 9.40798C1.90973 9.78431 2.21569 10.0903 2.59202 10.282C3.01984 10.5 3.57989 10.5 4.7 10.5H7.3C8.4201 10.5 8.98016 10.5 9.40798 10.282C9.78431 10.0903 10.0903 9.78431 10.282 9.40798C10.5 8.98016 10.5 8.42011 10.5 7.3V4.7C10.5 3.5799 10.5 3.01984 10.282 2.59202C10.0903 2.2157 9.78431 1.90973 9.40798 1.71799C8.98016 1.5 8.42011 1.5 7.3 1.5L4.7 1.5C3.5799 1.5 3.01984 1.5 2.59202 1.71799C2.2157 1.90973 1.90973 2.21569 1.71799 2.59202C1.5 3.01984 1.5 3.57989 1.5 4.7Z" stroke="#FBF1B8" stroke-width="1.5" stroke-linecap="round" stroke-linejoin="round"/>
</svg>
